<svg width="24" height="24" viewBox="0 0 24 24" fill="none" xmlns="http://www.w3.org/2000/svg">
<g clip-path="url(#clip0_15_46)">
<path d="M12.7607 9.63696V9.58659C12.7507 9.60288 12.736 9.62112 12.726 9.63696H12.7607Z" fill="url(#paint0_linear_15_46)"/>
<path d="M0.5 12C0.5 5.64872 5.64871 0.5 12 0.5C18.3513 0.5 23.5 5.64872 23.5 12C23.5 18.3513 18.3513 23.5 12 23.5C5.64871 23.5 0.5 18.3513 0.5 12Z" stroke="black"/>
<path d="M8.74915 17.1066H6.1543V9.61278H8.74915V17.1066Z" fill="black"/>
<path d="M7.45204 8.59006H7.43454C6.56393 8.59006 6 8.01407 6 7.2945C6 6.55925 6.58104 6 7.46877 6C8.35688 6 8.90292 6.55925 8.92004 7.2945C8.92008 8.01407 8.35692 8.59006 7.45204 8.59006Z" fill="black"/>
<path d="M18.1081 17.1066H15.5133V13.0973C15.5133 11.0365 12.7808 10.886 12.7808 12.9213V17.1065H10.1855C10.1855 17.1065 10.2201 10.3159 10.1855 9.61268H12.7806V10.6748C13.1253 10.165 13.7413 9.43653 15.1197 9.43653C16.8279 9.43653 18.1081 10.5074 18.1082 12.8093L18.1081 17.1066Z" fill="black"/>
</g>
<defs>
<linearGradient id="paint0_linear_15_46" x1="-45.2823" y1="8.78457" x2="9.04309" y2="72.1107" gradientUnits="userSpaceOnUse">
<stop stop-color="#517FA6"/>
<stop offset="1" stop-color="#426699"/>
</linearGradient>
<clipPath id="clip0_15_46">
<rect width="24" height="24" fill="white"/>
</clipPath>
</defs>
</svg>
