<svg width="24" height="24" viewBox="0 0 24 24" fill="none" xmlns="http://www.w3.org/2000/svg">
<g clip-path="url(#clip0_15_57)">
<path d="M12 23.5C5.64894 23.5 0.5 18.3511 0.5 12C0.5 5.64855 5.64893 0.5 12 0.5C18.3511 0.5 23.5 5.64855 23.5 12C23.5 18.3511 18.3511 23.5 12 23.5Z" stroke="black"/>
<path d="M12 14C10.7578 14 9.79915 12.8132 10.0384 11.6098C10.1928 10.834 10.834 10.1928 11.6098 10.0384C12.8132 9.79915 14 10.7578 14 12C13.9988 13.0889 13.0889 13.9988 12 14Z" fill="black"/>
<path fill-rule="evenodd" clip-rule="evenodd" d="M14.3333 6H9.66667C7.66955 6 6 7.66955 6 9.66667V14.3333C6 16.3305 7.66951 18 9.66667 18H14.3333C16.3305 18 18 16.3305 18 14.3333V9.66667C18 7.66951 16.3305 6 14.3333 6ZM12 9C10.1338 9 8.6977 10.7756 9.05765 12.5853C9.41763 14.395 11.424 15.4858 13.1481 14.7716C14.2572 14.3122 15 13.2005 15 12C15 10.366 13.634 9 12 9ZM15.8001 8.86674C15.8001 9.23493 15.5017 9.53341 15.1335 9.53341C14.7653 9.53341 14.4668 9.23493 14.4668 8.86674C14.4668 8.49855 14.7653 8.20007 15.1335 8.20007C15.5017 8.20007 15.8001 8.49855 15.8001 8.86674Z" fill="black"/>
</g>
<defs>
<clipPath id="clip0_15_57">
<rect width="24" height="24" fill="white"/>
</clipPath>
</defs>
</svg>
