<svg width="24" height="25" viewBox="0 0 24 25" fill="none" xmlns="http://www.w3.org/2000/svg">
<g clip-path="url(#clip0_11_2)">
<path d="M0.5 12.0063C0.5 5.65506 5.64871 0.506348 12 0.506348C18.3513 0.506348 23.5 5.65506 23.5 12.0063C23.5 18.3576 18.3513 23.5063 12 23.5063C5.64871 23.5063 0.5 18.3576 0.5 12.0063Z" stroke="black"/>
<path d="M8.69641 16.6734H6.10156V8.86731H8.69641V16.6734Z" fill="black"/>
<path d="M7.39931 7.80198H7.38181C6.5112 7.80198 5.94727 7.20199 5.94727 6.45244C5.94727 5.68655 6.52831 5.104 7.41604 5.104C8.30415 5.104 8.85019 5.68655 8.86731 6.45244C8.86735 7.20199 8.30419 7.80198 7.39931 7.80198Z" fill="black"/>
<path d="M18.0554 16.6734H15.4606V12.497C15.4606 11.4479 15.0849 10.7318 14.1458 10.7318C13.253 10.7318 12.7281 11.4978 12.7281 12.3137V16.6733H10.1328C10.1328 16.6733 10.1674 9.59974 10.1328 8.86721H12.7279V9.97357C13.0726 9.44252 13.6886 8.68372 15.067 8.68372C16.7752 8.68372 18.0554 9.79924 18.0555 12.197L18.0554 16.6734Z" fill="black"/>
</g>
<defs>
<clipPath id="clip0_11_2">
<rect width="24" height="25" fill="white"/>
</clipPath>
</defs>
</svg>
