<svg width="100" height="100" viewBox="0 0 100 100" fill="none" xmlns="http://www.w3.org/2000/svg">
<path fill-rule="evenodd" clip-rule="evenodd" d="M50 0C22.3857 0 0 22.3857 0 49.9999C0 77.6143 22.3857 100 50 100C77.6143 100 100 77.6143 100 49.9999C100 22.3857 77.6143 0 50 0ZM4 49.9999C4 24.5949 24.5948 4 50 4C75.4052 4 96 24.5949 96 49.9999C96 75.4052 75.4052 96 50 96C24.5948 96 4 75.4052 4 49.9999Z" fill="black"/>
<path d="M74.9996 71H64.1916V53.2274C64.1916 48.7629 62.6267 45.7156 58.7151 45.7156C54.9963 45.7156 52.8101 48.9754 52.8101 52.4473V70.9996H42C42 70.9996 42.1441 40.8981 42 37.7808H52.8092V42.4889C54.245 40.2291 56.8108 37 62.5522 37C69.6672 37 74.9996 41.7471 75 51.9507L74.9996 71Z" fill="black"/>
<path d="M25 71H36V38H25V71Z" fill="black"/>
<path d="M30.8953 33H30.9672C34.6859 33 37.0002 30.5538 37 27.4978C36.9297 24.3751 34.6857 22 31.0359 22C27.3878 22 25 24.3751 25 27.4978C25 30.5538 27.3175 33 30.8953 33Z" fill="black"/>
</svg>
