<svg width="24" height="24" viewBox="0 0 24 24" fill="none" xmlns="http://www.w3.org/2000/svg">
<g clip-path="url(#clip0_14_30)">
<path d="M12 23.5C5.64894 23.5 0.5 18.3511 0.5 12C0.5 5.64855 5.64893 0.5 12 0.5C18.3511 0.5 23.5 5.64855 23.5 12C23.5 18.3511 18.3511 23.5 12 23.5Z" stroke="black"/>
<path fill-rule="evenodd" clip-rule="evenodd" d="M10.3066 18.528H13.0042V11.9992H14.8038L15.0422 9.74965H13.0042L13.007 8.62325C13.007 8.03685 13.063 7.72205 13.9046 7.72205H15.0294V5.47205H13.2294C11.0674 5.47205 10.3066 6.56365 10.3066 8.39885V9.74965H8.95898V11.9996H10.3066V18.528Z" fill="black"/>
</g>
<defs>
<clipPath id="clip0_14_30">
<rect width="24" height="24" fill="white"/>
</clipPath>
</defs>
</svg>
