<svg width="24" height="24" viewBox="0 0 24 24" fill="none" xmlns="http://www.w3.org/2000/svg">
<g clip-path="url(#clip0_14_39)">
<path d="M12 23.5C5.64894 23.5 0.5 18.3511 0.5 12C0.5 5.64855 5.64893 0.5 12 0.5C18.3511 0.5 23.5 5.64855 23.5 12C23.5 18.3511 18.3511 23.5 12 23.5Z" stroke="black"/>
<path d="M14.3333 6H9.66667C8.69421 6 7.76158 6.38631 7.07394 7.07394C6.38631 7.76158 6 8.69421 6 9.66667V14.3333C6 15.3058 6.38631 16.2384 7.07394 16.9261C7.76158 17.6137 8.69421 18 9.66667 18H14.3333C15.3058 18 16.2384 17.6137 16.9261 16.9261C17.6137 16.2384 18 15.3058 18 14.3333V9.66667C18 8.69421 17.6137 7.76158 16.9261 7.07394C16.2384 6.38631 15.3058 6 14.3333 6Z" fill="black"/>
<path d="M12 9C11.4067 9 10.8266 9.17595 10.3333 9.50559C9.83994 9.83524 9.45543 10.3038 9.22836 10.8519C9.0013 11.4001 8.94189 12.0033 9.05765 12.5853C9.1734 13.1672 9.45912 13.7018 9.87868 14.1213C10.2982 14.5409 10.8328 14.8266 11.4147 14.9424C11.9967 15.0581 12.5999 14.9987 13.1481 14.7716C13.6962 14.5446 14.1648 14.1601 14.4944 13.6667C14.8241 13.1734 15 12.5933 15 12C15 11.2044 14.6839 10.4413 14.1213 9.87868C13.5587 9.31607 12.7957 9 12 9ZM12 14C11.6044 14 11.2178 13.8827 10.8889 13.6629C10.56 13.4432 10.3036 13.1308 10.1522 12.7654C10.0009 12.3999 9.96126 11.9978 10.0384 11.6098C10.1156 11.2219 10.3061 10.8655 10.5858 10.5858C10.8655 10.3061 11.2219 10.1156 11.6098 10.0384C11.9978 9.96126 12.3999 10.0009 12.7654 10.1522C13.1308 10.3036 13.4432 10.56 13.6629 10.8889C13.8827 11.2178 14 11.6044 14 12C13.9994 12.5302 13.7885 13.0386 13.4136 13.4136C13.0386 13.7885 12.5303 13.9994 12 14Z" fill="white"/>
<path d="M15.1335 9.53341C15.5017 9.53341 15.8001 9.23493 15.8001 8.86674C15.8001 8.49855 15.5017 8.20007 15.1335 8.20007C14.7653 8.20007 14.4668 8.49855 14.4668 8.86674C14.4668 9.23493 14.7653 9.53341 15.1335 9.53341Z" fill="white"/>
</g>
<defs>
<clipPath id="clip0_14_39">
<rect width="24" height="24" fill="white"/>
</clipPath>
</defs>
</svg>
